<?xml version="1.0" encoding="UTF-8" standalone="no"?>
<!DOCTYPE svg PUBLIC "-//W3C//DTD SVG 1.1//EN" "http://www.w3.org/Graphics/SVG/1.1/DTD/svg11.dtd">
<svg width="100%" height="100%" viewBox="0 0 720 720" version="1.1" xmlns="http://www.w3.org/2000/svg" xmlns:xlink="http://www.w3.org/1999/xlink" xml:space="preserve" xmlns:serif="http://www.serif.com/" style="fill-rule:evenodd;clip-rule:evenodd;stroke-linejoin:round;stroke-miterlimit:2;">
    <g transform="matrix(1.718767,0,0,1.718767,-382.426757,-132.618434)">
        <circle cx="431.953" cy="286.641" r="190.078" style="fill:rgb(69,126,53);"/>
    </g>
    <g>
        <g id="Layer1_0_FILL">
            <path d="M532.25,470.8C527.983,470.7 525.333,472.8 524.3,477.1L514.9,578.65C528.067,575.383 539.983,571.333 550.65,566.5C584.717,550.933 605.8,527.167 613.9,495.2C617.6,481.967 612.417,475.65 598.35,476.25L532.25,470.8M477.8,87.3C471.6,87.133 466.55,88.883 462.65,92.55C434.75,121.183 418.233,151.767 413.1,184.3C416.667,149.4 411.217,116.267 396.75,84.9C393.717,80.067 389.183,77.05 383.15,75.85C354.25,72.883 322.633,80.85 288.3,99.75C287.867,108.717 290.35,119.917 295.75,133.35C284.55,121.95 273.167,116.017 261.6,115.55C231.9,134.683 213.5,154.35 206.4,174.55C203.133,180.117 201.267,185.667 200.8,191.2C200.367,196.767 201.317,201.467 203.65,205.3C205.95,209.167 210.75,211.417 218.05,212.05C236.683,210.517 251.533,210.05 262.6,210.65C273.667,211.217 281.117,211.917 284.95,212.75C297.65,215.75 310.65,219.65 323.95,224.45C341.683,232.417 356.9,243.25 369.6,256.95C380.633,267.583 388.15,278.833 392.15,290.7C396.117,302.467 392.433,317.45 381.1,335.65L259.85,329.55C258.05,329.483 256.317,329.5 254.65,329.6C245.117,330.233 236.567,334.2 229,341.5C220.3,350 215.417,360.583 214.35,373.25L199.9,549.8C199.7,551.633 199.6,553.467 199.6,555.3C199.6,556.2 199.633,557.133 199.7,558.1C200.267,567.5 203.4,576.267 209.1,584.4C216.333,594.8 225.8,601.05 237.5,603.15L412.75,633.85C414.617,634.15 416.45,634.367 418.25,634.5C429.75,635.267 440.133,632.1 449.4,625C460.067,616.467 465.983,605.067 467.15,590.8L482.45,392.35C482.517,390.783 482.55,389.3 482.55,387.9C482.517,375.5 478.383,364.55 470.15,355.05C460.983,344.65 449.583,339.1 435.95,338.4L400.85,336.65L402.2,312.75C405.1,291.917 417.733,276.367 440.1,266.1C467.9,254.233 497.317,249 528.35,250.4C550.65,251.167 569.75,256.217 585.65,265.55C594.817,269.883 604.1,270.85 613.5,268.45C623.733,264.317 624.35,244.4 615.35,208.7C606.217,173.033 586.583,144.533 556.45,123.2C529.317,104 503.1,92.033 477.8,87.3M588.45,174.4C528.283,185.1 473.283,210.5 423.45,250.6C473.05,196.167 528.05,170.767 588.45,174.4M601.1,213.5C544.667,219.733 488.767,232.983 433.4,253.25C507.9,216.683 563.8,203.433 601.1,213.5M392.95,244.9C387.117,189.533 369.45,140.733 339.95,98.5C377.083,130.167 394.75,178.967 392.95,244.9M287.8,430.55C289.167,432.417 290.333,434.383 291.3,436.45C293.5,441.417 294.4,446.917 294,452.95L288.75,521.35C288.117,527.917 286.017,533.583 282.45,538.35C281.517,539.517 280.517,540.667 279.45,541.8C273.85,547.367 267.417,549.85 260.15,549.25C252.95,548.617 247.017,545.1 242.35,538.7C239.017,534.067 237.067,528.9 236.5,523.2C236.3,521.467 236.25,519.683 236.35,517.85L241.55,449.65C241.85,445.183 242.833,441.133 244.5,437.5C246.033,434.2 248.117,431.183 250.75,428.45C256.25,422.85 262.65,420.233 269.95,420.6C277.15,421 283.1,424.317 287.8,430.55M419.45,443C424.483,449.6 426.683,457.3 426.05,466.1L420.4,538.75C419.5,547.217 416.167,554.217 410.4,559.75C404.5,565.483 397.7,568.017 390,567.35C382.367,566.683 376.1,563.067 371.2,556.5C369.767,554.6 368.583,552.6 367.65,550.5C366.217,547.333 365.317,544 364.95,540.5C364.717,538.667 364.65,536.817 364.75,534.95L370.35,462.6C370.683,458 371.767,453.8 373.6,450C374.4,448.233 375.383,446.55 376.55,444.95C377.583,443.45 378.783,442.033 380.15,440.7C386.017,434.967 392.8,432.3 400.5,432.7C408.2,433.133 414.517,436.567 419.45,443Z" style="fill:rgb(196,249,156);fill-rule:nonzero;"/>
            <path d="M190.2,526.8L199.6,417.9L155.2,414C138.967,410.467 131.65,416.783 133.25,432.95C136.317,470.817 155.3,502.1 190.2,526.8M108.9,187.85L100.5,187.85C96.635,221.152 99.485,244.252 109.05,257.15C118.648,270.047 127.265,279.214 134.9,284.65C135.933,293.717 133.35,303.25 127.15,313.25C120.083,323.617 111.5,333 101.4,341.4C98.9,344.5 98.9,347.35 101.4,349.95C105.567,354.817 115.533,359.417 131.3,363.75C132.833,364.183 134.35,364.533 135.85,364.8C139.65,360.6 142.483,354.967 144.35,347.9C143.283,353.567 144.95,359.567 149.35,365.9C158.65,365.533 167.65,362.767 176.35,357.6C190.55,349.167 197.083,344.267 195.95,342.9C192.317,332.2 185.767,321.9 176.3,312C176.133,311.767 175.95,311.567 175.75,311.4C174.517,310.133 173.233,308.85 171.9,307.55C184.467,318.75 197.117,326.05 209.85,329.45C211.25,328.917 212.967,327.967 215,326.6C222.667,321.3 227.5,314.317 229.5,305.65C231.833,294.383 231.833,283.367 229.5,272.6C227.933,260.233 223.417,248.617 215.95,237.75C212.417,232.617 208.467,231.1 204.1,233.2C198.2,244.533 190.233,253.833 180.2,261.1C173.167,265.867 165.733,269.283 157.9,271.35C150.467,273.417 143.733,273.417 137.7,271.35C129.719,267.633 121.802,259.067 113.95,245.65C106.127,232.24 104.443,212.973 108.9,187.85M203.5,250.15C202.433,257.217 197.05,263.217 187.35,268.15C177.617,273.083 167.367,275.7 156.6,276C177.5,269.933 193.133,261.317 203.5,250.15M515.5,383.15C513.433,381.483 511.383,380.483 509.35,380.15C508.85,380.083 508.417,380.033 508.05,380C505.383,379.9 502.9,381.017 500.6,383.35C495.7,387.95 492.85,395.8 492.05,406.9L477.65,604.5C477.517,606.067 477.467,607.633 477.5,609.2C477.433,617.5 479.083,624.017 482.45,628.75C484.683,631.75 487.233,633.483 490.1,633.95C492.133,634.183 494.333,633.767 496.7,632.7L534.9,615.1C538.433,613.367 541.583,609.35 544.35,603.05C547.083,596.917 548.717,590.25 549.25,583.05L549.7,578C548.567,578.5 547.417,579.033 546.25,579.6C534.65,584.8 521.983,589.317 508.25,593.15C502.717,594.317 500.067,591.917 500.3,585.95L511.7,462.3C513.033,456.667 516.5,453.917 522.1,454.05L560.25,459.3L560.25,448C560.383,445.9 560.45,443.883 560.45,441.95C560.417,436.517 559.783,431.333 558.55,426.4C556.85,419.167 554.35,414.233 551.05,411.6L515.5,383.15Z" style="fill:rgb(177,242,129);fill-rule:nonzero;"/>
            <path d="M187.35,268.15C197.05,263.217 202.433,257.217 203.5,250.15C193.133,261.317 177.5,269.933 156.6,276C167.367,275.7 177.617,273.083 187.35,268.15M426.05,466.1C426.683,457.3 424.483,449.6 419.45,443C414.517,436.567 408.2,433.133 400.5,432.7C392.8,432.3 386.017,434.967 380.15,440.7C378.783,442.033 377.583,443.45 376.55,444.95C375.383,446.55 374.4,448.233 373.6,450C371.767,453.8 370.683,458 370.35,462.6L364.75,534.95C364.65,536.817 364.717,538.667 364.95,540.5C365.317,544 366.217,547.333 367.65,550.5C368.583,552.6 369.767,554.6 371.2,556.5C376.1,563.067 382.367,566.683 390,567.35C397.7,568.017 404.5,565.483 410.4,559.75C416.167,554.217 419.5,547.217 420.4,538.75L426.05,466.1M291.3,436.45C290.333,434.383 289.167,432.417 287.8,430.55C283.1,424.317 277.15,421 269.95,420.6C262.65,420.233 256.25,422.85 250.75,428.45C248.117,431.183 246.033,434.2 244.5,437.5C242.833,441.133 241.85,445.183 241.55,449.65L236.35,517.85C236.25,519.683 236.3,521.467 236.5,523.2C237.067,528.9 239.017,534.067 242.35,538.7C247.017,545.1 252.95,548.617 260.15,549.25C267.417,549.85 273.85,547.367 279.45,541.8C280.517,540.667 281.517,539.517 282.45,538.35C286.017,533.583 288.117,527.917 288.75,521.35L294,452.95C294.4,446.917 293.5,441.417 291.3,436.45M339.95,98.5C369.45,140.733 387.117,189.533 392.95,244.9C394.75,178.967 377.083,130.167 339.95,98.5M433.4,253.25C488.767,232.983 544.667,219.733 601.1,213.5C563.8,203.433 507.9,216.683 433.4,253.25M423.45,250.6C473.283,210.5 528.283,185.1 588.45,174.4C528.05,170.767 473.05,196.167 423.45,250.6Z" style="fill:rgb(69,126,53);fill-rule:nonzero;"/>
        </g>
    </g>
</svg>
