
<svg xmlns="http://www.w3.org/2000/svg" version="1.1" xmlns:xlink="http://www.w3.org/1999/xlink" preserveAspectRatio="none" x="0px" y="0px" width="720px" height="720px" viewBox="0 0 720 720">
<defs>
<g id="Layer6_0_FILL">
<path fill="#457E35" stroke="none" d="
M 720 720
L 720 0 0 0 0 720 720 720 Z"/>
</g>

<g id="Layer5_0_FILL">
<path fill="#7FD667" stroke="none" d="
M 758.75 -38.6
Q 730.95 -66.4 701.15 -89.55 623.35 -150.1 532.3 -178.55 456.05 -202.35 370.6 -203.75 365.35 -203.85 360.05 -203.85 126.5 -203.85 -38.65 -38.6 -203.85 126.6 -203.85 360.05 -203.85 370.5 -203.5 380.8 -201 458.65 -179.65 528.7 -151.7 620.75 -91.05 699.35 -67.35 730.15 -38.65 758.8 126.5 923.95 360.05 923.95 593.55 923.95 758.75 758.8 923.95 593.65 923.95 360.05 923.95 126.6 758.75 -38.6
M 554.05 96.75
Q 573.2083984375 111.2490234375 591 129.05 686.7 224.75 686.7 360 686.7 495.35 591 591 495.3 686.7 360 686.7 224.7 686.7 129 591 110.7021484375 572.71171875 95.9 552.95 57.6265625 501.9171875 42.75 441.15 33.3 402.540625 33.3 360 33.3 349.8896484375 33.8 340 40.45390625 217.59609375 129 129.05 215.4244140625 42.58046875 334.15 34.2 346.8861328125 33.3 360 33.3 403.6974609375 33.3 443.25 43.3 503.434765625 58.478515625 554.05 96.75 Z"/>
</g>

<g id="Layer1_0_FILL">
<path fill="#C4F99C" stroke="none" d="
M 532.25 470.8
Q 525.85 470.65 524.3 477.1
L 514.9 578.65
Q 534.65 573.75 550.65 566.5 601.75 543.15 613.9 495.2 619.45 475.35 598.35 476.25
L 532.25 470.8
M 477.8 87.3
Q 468.5 87.05 462.65 92.55 420.8 135.5 413.1 184.3 418.45 131.95 396.75 84.9 392.2 77.65 383.15 75.85 339.8 71.4 288.3 99.75 287.65 113.2 295.75 133.35 278.95 116.25 261.6 115.55 217.05 144.25 206.4 174.55 201.5 182.9 200.8 191.2 200.15 199.55 203.65 205.3 207.1 211.1 218.05 212.05 246 209.75 262.6 210.65 279.2 211.5 284.95 212.75 304 217.25 323.95 224.45 350.55 236.4 369.6 256.95 386.15 272.9 392.15 290.7 398.1 308.35 381.1 335.65
L 259.85 329.55
Q 257.15 329.45 254.65 329.6 240.35 330.55 229 341.5 215.95 354.25 214.35 373.25
L 199.9 549.8
Q 199.6 552.55 199.6 555.3 199.6 556.65 199.7 558.1 200.55 572.2 209.1 584.4 219.95 600 237.5 603.15
L 412.75 633.85
Q 415.55 634.3 418.25 634.5 435.5 635.65 449.4 625 465.4 612.2 467.15 590.8
L 482.45 392.35
Q 482.55 390 482.55 387.9 482.5 369.3 470.15 355.05 456.4 339.45 435.95 338.4
L 400.85 336.65 402.2 312.75
Q 406.55 281.5 440.1 266.1 481.8 248.3 528.35 250.4 561.8 251.55 585.65 265.55 599.4 272.05 613.5 268.45 628.85 262.25 615.35 208.7 601.65 155.2 556.45 123.2 515.75 94.4 477.8 87.3
M 588.45 174.4
Q 498.2 190.45 423.45 250.6 497.85 168.95 588.45 174.4
M 601.1 213.5
Q 516.45 222.85 433.4 253.25 545.15 198.4 601.1 213.5
M 392.95 244.9
Q 384.2 161.85 339.95 98.5 395.65 146 392.95 244.9
M 287.8 430.55
Q 289.85 433.35 291.3 436.45 294.6 443.9 294 452.95
L 288.75 521.35
Q 287.8 531.2 282.45 538.35 281.05 540.1 279.45 541.8 271.05 550.15 260.15 549.25 249.35 548.3 242.35 538.7 237.35 531.75 236.5 523.2 236.2 520.6 236.35 517.85
L 241.55 449.65
Q 242 442.95 244.5 437.5 246.8 432.55 250.75 428.45 259 420.05 269.95 420.6 280.75 421.2 287.8 430.55
M 419.45 443
Q 427 452.9 426.05 466.1
L 420.4 538.75
Q 419.05 551.45 410.4 559.75 401.55 568.35 390 567.35 378.55 566.35 371.2 556.5 369.05 553.65 367.65 550.5 365.5 545.75 364.95 540.5 364.6 537.75 364.75 534.95
L 370.35 462.6
Q 370.85 455.7 373.6 450 374.8 447.35 376.55 444.95 378.1 442.7 380.15 440.7 388.95 432.1 400.5 432.7 412.05 433.35 419.45 443 Z"/>

<path fill="#B1F281" stroke="none" d="
M 190.2 526.8
L 199.6 417.9 155.2 414
Q 130.85 408.7 133.25 432.95 137.85 489.75 190.2 526.8
M 108.9 187.85
L 100.5 187.85
Q 94.7021484375 237.8029296875 109.05 257.15 123.44765625 276.49609375 134.9 284.65 136.45 298.25 127.15 313.25 116.55 328.8 101.4 341.4 97.65 346.05 101.4 349.95 107.65 357.25 131.3 363.75 133.6 364.4 135.85 364.8 141.55 358.5 144.35 347.9 142.75 356.4 149.35 365.9 163.3 365.35 176.35 357.6 197.65 344.95 195.95 342.9 190.5 326.85 176.3 312 176.05 311.65 175.75 311.4 173.9 309.5 171.9 307.55 190.75 324.35 209.85 329.45 211.95 328.65 215 326.6 226.5 318.65 229.5 305.65 233 288.75 229.5 272.6 227.15 254.05 215.95 237.75 210.65 230.05 204.1 233.2 195.25 250.2 180.2 261.1 169.65 268.25 157.9 271.35 146.75 274.45 137.7 271.35 125.7283203125 265.7748046875 113.95 245.65 102.21484375 225.5345703125 108.9 187.85
M 203.5 250.15
Q 201.9 260.75 187.35 268.15 172.75 275.55 156.6 276 187.95 266.9 203.5 250.15
M 515.5 383.15
Q 512.4 380.65 509.35 380.15 508.6 380.05 508.05 380 504.05 379.85 500.6 383.35 493.25 390.25 492.05 406.9
L 477.65 604.5
Q 477.45 606.85 477.5 609.2 477.4 621.65 482.45 628.75 485.8 633.25 490.1 633.95 493.15 634.3 496.7 632.7
L 534.9 615.1
Q 540.2 612.5 544.35 603.05 548.45 593.85 549.25 583.05
L 549.7 578
Q 548 578.75 546.25 579.6 528.85 587.4 508.25 593.15 499.95 594.9 500.3 585.95
L 511.7 462.3
Q 513.7 453.85 522.1 454.05
L 560.25 459.3 560.25 448
Q 560.45 444.85 560.45 441.95 560.4 433.8 558.55 426.4 556 415.55 551.05 411.6
L 515.5 383.15 Z"/>

<path fill="#457E35" stroke="none" d="
M 187.35 268.15
Q 201.9 260.75 203.5 250.15 187.95 266.9 156.6 276 172.75 275.55 187.35 268.15
M 426.05 466.1
Q 427 452.9 419.45 443 412.05 433.35 400.5 432.7 388.95 432.1 380.15 440.7 378.1 442.7 376.55 444.95 374.8 447.35 373.6 450 370.85 455.7 370.35 462.6
L 364.75 534.95
Q 364.6 537.75 364.95 540.5 365.5 545.75 367.65 550.5 369.05 553.65 371.2 556.5 378.55 566.35 390 567.35 401.55 568.35 410.4 559.75 419.05 551.45 420.4 538.75
L 426.05 466.1
M 291.3 436.45
Q 289.85 433.35 287.8 430.55 280.75 421.2 269.95 420.6 259 420.05 250.75 428.45 246.8 432.55 244.5 437.5 242 442.95 241.55 449.65
L 236.35 517.85
Q 236.2 520.6 236.5 523.2 237.35 531.75 242.35 538.7 249.35 548.3 260.15 549.25 271.05 550.15 279.45 541.8 281.05 540.1 282.45 538.35 287.8 531.2 288.75 521.35
L 294 452.95
Q 294.6 443.9 291.3 436.45
M 339.95 98.5
Q 384.2 161.85 392.95 244.9 395.65 146 339.95 98.5
M 433.4 253.25
Q 516.45 222.85 601.1 213.5 545.15 198.4 433.4 253.25
M 423.45 250.6
Q 498.2 190.45 588.45 174.4 497.85 168.95 423.45 250.6 Z"/>
</g>
</defs>

<g transform="matrix( 1, 0, 0, 1, 0,0) ">
<use xlink:href="#Layer6_0_FILL"/>
</g>

<g transform="matrix( 1, 0, 0, 1, 0,0) ">
<use xlink:href="#Layer5_0_FILL"/>
</g>

<g transform="matrix( 1, 0, 0, 1, 0,0) ">
<use xlink:href="#Layer1_0_FILL"/>
</g>
</svg>
